<svg width="1672" height="403" viewBox="0 0 1672 403" fill="none" xmlns="http://www.w3.org/2000/svg">
<g clip-path="url(#clip0_4_116)">
<path d="M150.59 142.008H94.2017L48.6632 191.897V80H0V292.596H48.6632V248.896L62.319 234.56L97.7603 292.596H155.334L97.6157 202.836L150.59 142.008Z" fill="white"/>
<path d="M449.831 215.301C440.833 207.96 425.557 202.145 403.974 197.798C393.298 195.524 386.181 193.509 382.622 191.753C379.064 189.968 377.27 187.291 377.27 183.635C377.27 179.979 379.324 177.302 383.432 175.287C387.541 173.271 392.893 172.264 399.518 172.264C404.871 172.264 410.339 172.897 415.98 174.193C421.622 175.459 427.09 177.302 432.385 179.662C437.679 182.023 442.337 184.786 446.417 187.924L461.114 154.56C453.302 148.744 443.928 144.225 432.992 140.972C422.056 137.719 410.454 136.107 398.187 136.107C385.92 136.107 374.521 138.151 364.887 142.239C355.253 146.326 347.702 152.055 342.262 159.425C336.823 166.794 334.104 175.43 334.104 185.276C334.104 199.151 338.819 210.033 348.28 217.892C357.712 225.78 372.641 231.422 393.009 234.877C403.8 236.834 411.033 238.677 414.736 240.346C418.44 242.016 420.291 244.636 420.291 248.176C420.291 252.207 418.266 255.287 414.216 257.417C410.165 259.548 404.263 260.584 396.567 260.584C388.148 260.584 379.266 259.087 369.863 256.093C360.46 253.099 351.665 248.982 343.449 243.772L328.317 276.993C336.736 283.297 346.747 288.162 358.348 291.617C369.979 295.071 382.796 296.77 396.857 296.77C410.107 296.77 421.709 294.668 431.661 290.494C441.614 286.32 449.368 280.447 454.951 272.847C460.535 265.276 463.342 256.352 463.342 246.133C463.342 232.948 458.828 222.7 449.831 215.359V215.301Z" fill="white"/>
<path d="M713.341 145.923C704.922 140.367 693.407 137.575 678.767 137.575C667.484 137.575 656.866 139.763 646.856 144.139C636.874 148.514 628.889 155.481 622.958 165.038C619.978 156.661 614.481 150.011 606.409 145.031C598.337 140.051 588.79 137.575 577.709 137.575C571.98 137.575 566.281 138.439 560.639 140.166C554.997 141.893 549.703 144.455 544.756 147.852C539.808 151.249 535.497 155.51 531.852 160.634V142.037H483.189V292.624H531.852V206.694C531.852 201.973 533.009 197.712 535.353 193.912C537.667 190.112 540.908 187.089 545.074 184.844C549.24 182.57 554.014 181.447 559.453 181.447C567.872 181.447 574.324 184.009 578.808 189.133C583.322 194.258 585.549 200.994 585.549 209.371V292.624H634.212V206.694C634.212 201.973 635.37 197.712 637.713 193.912C640.028 190.112 643.268 187.089 647.434 184.844C651.6 182.57 656.345 181.447 661.669 181.447C670.175 181.447 676.655 184.009 681.111 189.133C685.566 194.258 687.794 200.994 687.794 209.371V292.624H736.457V195.495C736.457 185.65 734.692 176.323 731.192 167.514C727.691 158.705 721.731 151.508 713.312 145.952L713.341 145.923Z" fill="white"/>
<path d="M909.324 177.446C902.207 165.326 892.312 155.682 879.64 148.428C866.968 141.173 852.387 137.575 835.867 137.575C823.513 137.575 812.172 139.705 801.901 143.995C791.601 148.284 782.719 154.128 775.197 161.555C767.675 168.982 761.859 177.503 757.751 187.089C753.643 196.676 751.589 206.751 751.589 217.287C751.589 231.768 755.176 245.039 762.351 257.158C769.526 269.278 779.45 278.921 792.093 286.176C804.765 293.402 819.347 297.029 835.867 297.029C848.22 297.029 859.562 294.87 869.833 290.523C880.103 286.205 889.014 280.332 896.536 272.962C904.059 265.593 909.845 257.101 913.896 247.486C917.946 237.899 919.971 227.824 919.971 217.287C919.971 202.807 916.413 189.536 909.295 177.417L909.324 177.446ZM885.629 216.51L884.356 216.942C862.628 224.542 845.298 241.181 836.937 262.541C836.706 263.146 835.867 263.146 835.635 262.541C827.274 241.181 809.944 224.542 788.216 216.942L786.943 216.51C786.307 216.28 786.307 215.416 786.943 215.186L788.216 214.754C809.944 207.154 827.274 190.515 835.635 169.155C835.867 168.55 836.706 168.55 836.937 169.155C845.298 190.515 862.628 207.154 884.356 214.754L885.629 215.186C886.266 215.416 886.266 216.28 885.629 216.51Z" fill="white"/>
<path d="M283.097 148.428C270.425 141.202 255.843 137.575 239.323 137.575C226.969 137.575 215.628 139.705 205.357 143.995C195.058 148.284 186.176 154.128 178.653 161.555C171.131 168.982 165.316 177.503 161.208 187.089C157.099 196.676 155.045 206.751 155.045 217.287C155.045 231.768 158.633 245.039 165.808 257.158C172.983 269.278 182.906 278.921 195.55 286.176C208.222 293.402 222.803 297.029 239.323 297.029C251.677 297.029 263.018 294.87 273.289 290.523C283.589 286.205 292.471 280.332 299.993 272.962C307.515 265.593 313.302 257.101 317.352 247.486C321.403 237.899 323.428 227.824 323.428 217.287C323.428 202.807 319.869 189.536 312.752 177.417C305.635 165.297 295.74 155.653 283.068 148.399L283.097 148.428ZM275.633 181.62L275.054 182.829C265.073 203.498 264.667 227.449 273.926 248.436C274.186 249.011 273.578 249.616 273 249.357C251.909 240.145 227.837 240.548 207.064 250.479L205.849 251.055C205.242 251.343 204.634 250.71 204.923 250.134L205.502 248.925C215.484 228.256 215.889 204.304 206.63 183.318C206.37 182.743 206.978 182.138 207.556 182.397C228.647 191.609 252.719 191.206 273.492 181.274L274.707 180.699C275.314 180.411 275.922 181.044 275.633 181.62Z" fill="white"/>
</g>
<path d="M1667.98 288.88C1667.26 288.103 1666.51 287.326 1665.76 286.549L1586.56 206.676C1586.2 206.315 1586.2 205.705 1586.56 205.344L1665.76 125.471C1667.95 123.278 1670 120.975 1672 118.616C1625.18 58.4476 1528.82 13.3769 1412.11 0L1339.69 71.9633C1339.33 72.3241 1338.72 72.3241 1338.36 71.9633L1266.04 0.0832586C1137.6 14.9866 1033.89 68.2722 994 137.793L1060.98 205.316C1061.34 205.677 1061.34 206.287 1060.98 206.648L997.576 270.591C1040.38 338.058 1143.81 389.151 1270.75 402.917L1338.39 335.699C1338.75 335.338 1339.36 335.338 1339.72 335.699L1407.45 403C1523.02 390.622 1619.19 347.3 1668.04 288.852L1667.98 288.88Z" fill="#7B7B7B"/>
<path d="M1667.98 288.88C1667.26 288.103 1666.51 287.326 1665.76 286.549L1586.56 206.676C1586.2 206.315 1586.2 205.705 1586.56 205.344L1665.76 125.471C1667.95 123.278 1670 120.975 1672 118.616C1625.18 58.4476 1528.82 13.3769 1412.11 0L1339.69 71.9633C1339.33 72.3241 1338.72 72.3241 1338.36 71.9633L1266.04 0.0832586C1137.6 14.9866 1033.89 68.2722 994 137.793L1060.98 205.316C1061.34 205.677 1061.34 206.287 1060.98 206.648L997.576 270.591C1040.38 338.058 1143.81 389.151 1270.75 402.917L1338.39 335.699C1338.75 335.338 1339.36 335.338 1339.72 335.699L1407.45 403C1523.02 390.622 1619.19 347.3 1668.04 288.852L1667.98 288.88Z" fill="url(#paint0_radial_4_116)"/>
<path d="M1271.51 285.049V148.984H1298.33V160.036C1301.93 155.825 1306.53 152.444 1312.13 149.923C1317.72 147.401 1324.21 146.14 1331.6 146.14C1340.83 146.14 1349.06 148.259 1356.3 152.471C1363.53 156.683 1369.23 162.639 1373.4 170.338C1377.57 178.037 1379.64 186.97 1379.64 197.165C1379.64 204.354 1378.46 211.034 1376.09 217.231C1373.73 223.428 1370.36 228.847 1366.01 233.488C1361.65 238.129 1356.51 241.724 1350.62 244.299C1344.7 246.874 1338.19 248.162 1331.06 248.162C1325.39 248.162 1320.14 247.277 1315.38 245.479C1310.62 243.682 1306.35 241.08 1302.55 237.673V285.022H1271.57L1271.51 285.049ZM1325.82 221.55C1330.31 221.55 1334.32 220.557 1337.84 218.572C1341.37 216.587 1344.16 213.77 1346.18 210.122C1348.2 206.473 1349.22 202.154 1349.22 197.165C1349.22 192.175 1348.2 187.882 1346.15 184.207C1344.11 180.559 1341.31 177.742 1337.76 175.757C1334.21 173.772 1330.26 172.779 1325.82 172.779C1321.38 172.779 1317.43 173.772 1313.88 175.757C1310.35 177.742 1307.56 180.559 1305.54 184.207C1303.52 187.856 1302.5 192.175 1302.5 197.165C1302.5 202.154 1303.49 206.447 1305.54 210.122C1307.56 213.77 1310.33 216.587 1313.82 218.572C1317.32 220.557 1321.33 221.55 1325.82 221.55Z" fill="white"/>
<path d="M1208.75 225.815C1212.49 225.815 1215.85 225.145 1218.84 223.83C1221.85 222.516 1224.22 220.557 1225.99 218.009C1227.77 215.46 1228.66 212.321 1228.66 208.619V186.702C1228.66 183.188 1227.96 180.076 1226.53 177.447C1225.11 174.791 1222.85 172.752 1219.7 171.25C1216.58 169.774 1212.41 169.023 1207.24 169.023C1202.08 169.023 1197.21 169.774 1192.32 171.303C1187.42 172.806 1183.01 175.032 1179.11 177.93L1171.15 156.683C1177.39 152.766 1184.09 149.896 1191.24 148.045C1198.37 146.194 1205.39 145.255 1212.27 145.255C1221.37 145.255 1229.38 146.703 1236.29 149.601C1243.21 152.498 1248.61 156.978 1252.54 163.014C1256.47 169.05 1258.41 176.803 1258.41 186.246V245.399H1231.51V235.205C1228.41 239.363 1224.14 242.582 1218.7 244.835C1213.27 247.116 1207.08 248.242 1200.14 248.242C1193.77 248.242 1188.01 247.008 1182.9 244.514C1177.79 242.019 1173.73 238.478 1170.72 233.836C1167.73 229.195 1166.23 223.642 1166.23 217.15C1166.23 211.597 1167.62 206.688 1170.39 202.422C1173.16 198.13 1177.33 194.616 1182.9 191.853C1188.47 189.09 1195.46 187.212 1203.88 186.219C1212.33 185.253 1222.17 185.253 1233.5 186.273L1233.79 205.561C1227.79 204.488 1222.39 203.952 1217.55 203.898C1212.71 203.871 1208.62 204.273 1205.23 205.132C1201.84 205.99 1199.26 207.278 1197.4 209.049C1195.57 210.819 1194.66 212.992 1194.66 215.568C1194.66 218.894 1195.95 221.469 1198.5 223.213" fill="white"/>
<path d="M1390.55 285.049V148.984H1417.37V160.036C1420.98 155.825 1425.58 152.444 1431.17 149.923C1436.77 147.401 1443.25 146.14 1450.64 146.14C1459.87 146.14 1468.1 148.259 1475.34 152.471C1482.57 156.683 1488.28 162.639 1492.44 170.338C1496.61 178.037 1498.68 186.97 1498.68 197.165C1498.68 204.354 1497.5 211.034 1495.13 217.231C1492.77 223.428 1489.4 228.847 1485.05 233.488C1480.69 238.129 1475.55 241.724 1469.66 244.299C1463.74 246.874 1457.23 248.162 1450.11 248.162C1444.43 248.162 1439.19 247.277 1434.43 245.479C1429.66 243.682 1425.39 241.08 1421.59 237.673V285.022H1390.61L1390.55 285.049ZM1444.86 221.55C1449.35 221.55 1453.36 220.557 1456.89 218.572C1460.41 216.587 1463.21 213.77 1465.22 210.122C1467.24 206.473 1468.26 202.154 1468.26 197.165C1468.26 192.175 1467.24 187.882 1465.2 184.207C1463.15 180.559 1460.36 177.742 1456.8 175.757C1453.25 173.772 1449.3 172.779 1444.86 172.779C1440.42 172.779 1436.47 173.772 1432.92 175.757C1429.4 177.742 1426.6 180.559 1424.58 184.207C1422.56 187.856 1421.54 192.175 1421.54 197.165C1421.54 202.154 1422.54 206.447 1424.58 210.122C1426.6 213.77 1429.37 216.587 1432.86 218.572C1436.36 220.557 1440.37 221.55 1444.86 221.55Z" fill="white"/>
<defs>
<radialGradient id="paint0_radial_4_116" cx="0" cy="0" r="1" gradientUnits="userSpaceOnUse" gradientTransform="translate(1068 201) scale(711.5 711.5)">
<stop offset="0.0145084" stop-color="#BEA8FF"/>
<stop offset="0.509615" stop-color="#5A44E2"/>
<stop offset="1" stop-color="#9483FF"/>
</radialGradient>
<clipPath id="clip0_4_116">
<rect width="920" height="217" fill="white" transform="translate(0 80)"/>
</clipPath>
</defs>
</svg>
